<svg width="32" height="32" viewBox="0 0 32 32" fill="none" xmlns="http://www.w3.org/2000/svg">
  <!-- Background circle -->
  <circle cx="16" cy="16" r="16" fill="url(#gradient)"/>
  
  <!-- KP monogram -->
  <g fill="white">
    <!-- K letter -->
    <path d="M8 8 L8 24 L10 24 L10 17 L15 24 L17.5 24 L12.5 17 L17 8 L14.5 8 L11 15 L10 14 L10 8 Z"/>
    
    <!-- P letter -->
    <path d="M20 8 L20 24 L22 24 L22 17 L25 17 Q27 17 27 15 L27 10 Q27 8 25 8 Z M22 10 L25 10 L25 15 L22 15 Z"/>
  </g>
  
  <!-- Gradient definition -->
  <defs>
    <linearGradient id="gradient" x1="0%" y1="0%" x2="100%" y2="100%">
      <stop offset="0%" style="stop-color:#7C3AED;stop-opacity:1" />
      <stop offset="50%" style="stop-color:#3B82F6;stop-opacity:1" />
      <stop offset="100%" style="stop-color:#06B6D4;stop-opacity:1" />
    </linearGradient>
  </defs>
</svg>